<?xml version="1.0" encoding="UTF-8" standalone="no"?>
<!DOCTYPE svg PUBLIC "-//W3C//DTD SVG 1.1//EN" "http://www.w3.org/Graphics/SVG/1.1/DTD/svg11.dtd">
<svg width="100%" height="100%" viewBox="0 0 189 501" version="1.1" xmlns="http://www.w3.org/2000/svg" xmlns:xlink="http://www.w3.org/1999/xlink" xml:space="preserve" xmlns:serif="http://www.serif.com/" style="fill-rule:evenodd;clip-rule:evenodd;stroke-linejoin:round;stroke-miterlimit:2;">
    <g transform="matrix(1,0,0,1,-201.235,-74.8032)">
        <g id="p31" transform="matrix(1.78911,0,0,1.78911,-1945.83,-1376.63)">
            <path d="M1302.32,1076.02C1300.02,1072.43 1298.17,1069.76 1296.23,1066.38C1294.77,1063.85 1293.72,1061.14 1291.65,1059.77C1290.87,1059.25 1289.9,1059.27 1289.29,1058.76C1288.06,1057.74 1286.95,1054.12 1286.41,1051.31C1284.66,1042.13 1285.44,1031.65 1282.01,1024.22C1281.11,1022.28 1279.41,1020.05 1277.94,1018.13C1275.33,1014.69 1273.16,1013.69 1272.87,1008.82C1272.29,999.25 1273.25,989.926 1274.05,981.904C1277.21,980.97 1280.23,982.224 1282.85,981.225C1283.8,980.871 1283.95,979.449 1284.88,978.687C1286.37,977.478 1288.29,977.795 1289.96,976.994C1287.12,972.066 1284.02,967.071 1281.67,961.592C1280.48,958.82 1279.51,955.928 1278.28,953.126C1277.09,950.388 1275.5,947.782 1274.39,945.001C1272.13,939.383 1270.75,933.312 1268.12,927.566C1266.91,924.912 1265.65,921.959 1264.91,918.933C1264.13,915.772 1263.06,912.106 1264.4,908.776C1271.09,911.399 1272.06,905.386 1272.53,899.634C1272.73,897.112 1273.42,894.381 1273.54,891.507C1273.67,888.551 1273.43,885.553 1273.71,882.539C1273.96,879.79 1274.43,877.082 1274.73,874.413C1275.2,870.192 1276.25,865.205 1274.73,862.055C1272.44,857.316 1264.92,854.788 1257.63,855.623C1257.01,855.692 1256.53,856.094 1255.94,856.128C1254.48,856.217 1252.66,855.701 1251.54,855.114C1249.39,854 1248.01,850.243 1248.83,846.143C1248.97,845.441 1249.81,844.3 1250.18,843.095C1250.2,843.033 1250.21,842.967 1250.23,842.904C1250.64,843.343 1251.01,843.801 1251.3,844.288C1251.54,844.698 1252.01,845.562 1251.93,846.07C1251.86,846.614 1251.09,846.851 1251.04,847.469C1250.96,848.566 1251.86,848.88 1252.7,849.248C1252.49,851.396 1252.62,854.51 1254.35,855.995C1256.03,855.68 1256.58,854.234 1258.68,854.34C1258.59,853.314 1259.97,853.77 1259.82,852.686C1260.2,852.536 1260.8,852.672 1261.35,852.431C1260.17,850.009 1256.75,849.824 1256,846.959C1258.04,846.209 1258.86,847.746 1259.95,848.359C1260.4,847.83 1260.65,847.108 1260.97,846.451C1260.27,845.2 1258.83,844.685 1256.9,844.669C1256.91,843.362 1257.4,841.885 1257.02,840.596C1256.04,840.056 1255.2,841.186 1254.86,841.107C1254.35,840.985 1254.36,840.065 1253.84,839.579C1254.79,838.167 1253.96,836.708 1253.97,835.379C1253.98,833.563 1255.26,832.317 1254.99,830.035C1254.79,828.403 1253.86,827.184 1253.21,825.962C1252.37,824.397 1251.69,822.702 1251.04,821.253C1250.64,820.374 1250.49,819.469 1250.15,818.582C1249.35,816.487 1247.32,813.92 1245.7,812.855C1243.55,811.447 1240.75,811.546 1238.06,811.329C1233.38,810.945 1229.3,812.145 1226.74,815.145C1224.31,817.984 1222.3,821.424 1221.9,825.834C1221.51,830.185 1222.33,833.548 1223.81,837.289C1224.01,837.473 1224.4,837.457 1224.58,837.669C1225.14,840.821 1228.3,843.895 1227.88,847.086C1227.24,847.743 1225.88,847.305 1225.21,848.232C1224.56,849.132 1225,851.189 1225.85,851.414C1227.23,851.779 1227.38,850.079 1228.52,849.886C1229.31,852.266 1226.86,854.089 1226.1,856.122C1226.43,856.387 1227.33,856.078 1227.63,856.376C1227.51,857.105 1227,857.451 1226.99,858.287C1228.07,858.562 1228.14,857.366 1228.77,857.14C1228.63,857.189 1229.27,857.407 1229.41,857.395C1230.18,857.33 1230.22,857.221 1230.94,857.522C1231.28,857.483 1231.16,856.988 1231.45,856.885C1231.51,857.073 1231.67,857.172 1231.87,857.226C1230.8,858.617 1229.33,859.65 1227.67,860.023C1227.19,860.13 1226.44,859.973 1226.14,860.023C1225.05,860.208 1223.73,860.848 1222.42,861.208C1218.59,862.254 1215.62,863.513 1213.11,865.611C1208.3,869.623 1210.08,876.995 1211.59,883.214C1212.27,886.044 1213.37,888.884 1213.79,891.847C1214.13,894.277 1214.17,898.625 1214.46,902.003C1214.68,904.561 1214.59,909.978 1215.82,911.484C1216.2,911.953 1217.24,912.015 1217.85,912.667C1218.32,913.181 1218.26,913.826 1218.53,914.192C1219.42,915.43 1220.78,915.561 1222.25,915.207C1221.5,920.942 1218.62,925.908 1216.66,931.12C1214.66,936.451 1213.25,941.932 1211.25,947.369C1207.33,958.04 1204.98,969.375 1200.07,979.365C1201.81,979.712 1203.46,980.15 1204.98,980.718C1205.59,981.527 1205.65,982.873 1206.68,983.257C1209.68,982.991 1212.96,982.997 1216.15,982.919C1217.47,983.134 1218.01,985.248 1219.37,985.626C1220.69,985.99 1221.74,985.309 1223.27,985.12C1225.71,993.034 1231.56,1000.53 1231.56,1011.19C1231.56,1016.76 1229.85,1022.54 1230.04,1027.95C1230.16,1031.54 1231.48,1035.46 1232.24,1039.12C1233.9,1047.11 1236.12,1052.55 1237.15,1060.96C1237.59,1064.55 1238,1070.49 1236.81,1073.32C1236.16,1074.87 1235.11,1075.04 1233.76,1076.02C1232.73,1076.77 1231.75,1078.05 1230.55,1079.07C1228.6,1080.72 1226.79,1081.36 1225.97,1083.13C1224.52,1083.88 1222.58,1084.14 1222.93,1086.69C1218.29,1089.26 1223.75,1091.3 1227.67,1091.26C1232.05,1091.21 1235.21,1089.97 1240.03,1088.55C1243.3,1087.58 1248.06,1086.69 1249.17,1084.99C1249.63,1084.29 1249.85,1082.48 1249.51,1081.95C1249.2,1081.18 1247.78,1081.53 1247.13,1081.1C1249.1,1078.02 1246.76,1074.65 1246.29,1071.45C1245.09,1063.42 1246.44,1055.41 1246.8,1047.41C1247.14,1039.51 1248.51,1031.45 1247.3,1023.88C1246.93,1021.51 1246.09,1018.99 1246.12,1016.61C1246.14,1014.5 1247.01,1012.37 1247.13,1010.34C1247.66,1001.83 1244.44,993.844 1245.27,985.626C1248.02,985.702 1250.48,986.066 1252.72,986.644C1254.09,992.174 1254.9,997.81 1256.11,1003.4C1257.32,1009.02 1257.59,1015.23 1260,1019.82C1261.42,1022.54 1263.79,1024.66 1264.91,1027.27C1265.67,1029.07 1266.01,1030.78 1266.77,1032.35C1267.49,1033.83 1268.49,1035.1 1269.48,1036.58C1274.11,1043.5 1278.46,1051.45 1280.65,1060.45C1281.09,1062.25 1281.13,1064.5 1281.84,1066.38C1282.07,1067 1283.18,1067.98 1283.7,1069.08C1285.15,1072.19 1286.09,1076.32 1287.59,1080.42C1288.46,1082.78 1290.15,1090.21 1292.84,1090.41C1294.88,1090.56 1298.06,1088.09 1299.95,1086.69C1301.45,1085.57 1305.18,1082.8 1305.2,1080.93C1305.21,1079.96 1303.2,1077.39 1302.32,1076.02ZM1233.39,853.995C1232.86,852.639 1232.09,851.52 1231.32,850.396C1231.5,849.943 1232.29,850.1 1232.34,849.504C1232.13,848.143 1230.29,848.409 1230.43,846.705C1230.5,846.659 1230.57,846.632 1230.63,846.594C1231.56,847.668 1232.77,848.536 1233.08,849.359C1233.68,850.91 1233.74,852.512 1233.39,853.995Z" style="fill:rgb(63,56,255);fill-rule:nonzero;"/>
        </g>
    </g>
</svg>
