<?xml version="1.0" encoding="UTF-8" standalone="no"?>
<!DOCTYPE svg PUBLIC "-//W3C//DTD SVG 1.1//EN" "http://www.w3.org/Graphics/SVG/1.1/DTD/svg11.dtd">
<svg width="100%" height="100%" viewBox="0 0 226 539" version="1.1" xmlns="http://www.w3.org/2000/svg" xmlns:xlink="http://www.w3.org/1999/xlink" xml:space="preserve" xmlns:serif="http://www.serif.com/" style="fill-rule:evenodd;clip-rule:evenodd;stroke-linejoin:round;stroke-miterlimit:2;">
    <g transform="matrix(1,0,0,1,-164.148,-25.9236)">
        <g id="p10_0" transform="matrix(2.5691,0,0,2.5691,-189.602,-841.566)">
            <path d="M197.604,408.645C197.575,408.532 197.296,405.651 197.296,405.651C197.911,406.658 198.499,407.861 198.526,407.973C198.555,408.085 198.499,408.252 198.387,408.448C198.274,408.645 197.632,408.756 197.604,408.645ZM225.024,544.869C224.599,544.443 221.619,542.376 221.559,542.012C221.498,541.646 221.619,541.281 221.498,540.612C221.376,539.943 221.619,539.336 220.89,539.274C220.16,539.214 219.43,539.336 219.187,539.214C218.943,539.093 218.822,539.093 218.822,538.302C218.822,537.512 219.005,536.781 218.518,536.478C218.031,536.174 216.815,535.748 216.937,535.443C217.059,535.14 218.822,533.437 219.187,532.464C219.552,531.491 219.855,531.552 219.43,529.484C219.005,527.417 218.64,524.923 216.876,524.072C215.112,523.221 214.322,523.099 214.079,521.274C213.835,519.45 213.774,519.633 213.774,517.869C213.774,516.105 214.322,509.052 213.288,507.105C212.254,505.159 212.011,505.099 211.524,503.578C211.038,502.059 211.038,501.997 211.342,500.781C211.646,499.564 212.254,497.862 212.254,497.862C212.254,497.862 212.376,497.254 211.646,495.369C210.916,493.483 208.788,492.814 208.362,490.2C207.937,487.585 207.268,485.7 207.085,484.058C206.903,482.416 206.842,481.443 206.842,480.349C206.842,479.254 206.599,479.497 206.842,478.402C207.085,477.308 206.355,470.618 206.295,468.794C206.234,466.97 206.355,465.023 205.869,464.051C205.383,463.078 205.322,461.923 204.835,459.064C204.349,456.206 204.288,451.767 203.802,450.733C203.315,449.699 202.828,448.423 203.193,448.179C203.559,447.936 205.747,447.449 205.809,447.023C205.869,446.598 204.592,444.104 204.592,443.497C204.592,442.889 204.592,440.091 204.166,438.936C203.741,437.78 202.828,436.199 202.707,435.165C202.585,434.132 202.585,434.132 202.281,431.699C201.978,429.267 201.612,421.482 201.552,420.813C201.49,420.146 199.909,419.901 199.788,419.72C199.666,419.537 198.45,413.273 198.268,412.301L199.909,412.908C199.909,412.908 199.728,414.429 200.518,415.28C201.309,416.132 201.065,416.618 201.43,417.408C201.795,418.199 200.943,418.199 201.916,419.051C202.89,419.901 202.768,420.449 203.619,420.327C204.471,420.206 204.896,419.354 205.14,419.415C205.383,419.477 205.991,419.72 205.991,419.72C206.842,419.294 208.91,417.47 209.579,416.922C210.248,416.375 210.491,416.192 210.978,415.463C211.464,414.732 211.95,414.003 212.315,413.395C212.68,412.787 212.437,412.97 212.741,412.482C213.045,411.996 213.41,412.301 213.41,411.206C213.41,410.111 213.349,410.172 213.349,409.138C213.349,408.104 212.559,407.618 212.437,407.192C212.315,406.767 211.95,406.219 211.95,405.732C211.95,405.246 211.89,404.881 211.707,404.456C211.524,404.03 211.403,403.848 211.342,403.361C211.281,402.875 211.829,403.787 211.16,402.084C210.491,400.381 210.552,399.469 209.943,398.618C209.335,397.767 208.849,396.063 207.815,394.726C206.781,393.388 205.626,390.955 204.471,388.098C203.315,385.239 198.511,373.26 197.842,372.529C197.173,371.8 196.626,371.557 195.349,371.01C194.071,370.462 183.612,369.55 181.666,368.638C179.72,367.726 176.558,366.935 176.497,366.327C176.437,365.719 177.531,364.807 178.321,364.441C179.112,364.077 180.633,363.59 180.693,363.226C180.754,362.86 180.024,360.489 180.085,359.698C180.146,358.908 180.45,358.908 180.45,358.665C180.45,358.421 180.024,358.36 180.146,358.178C180.268,357.996 180.389,357.752 180.328,357.327C180.268,356.901 180.389,356.476 180.389,355.928C180.389,355.381 179.964,355.198 180.146,354.833C180.328,354.469 180.633,354.043 180.633,353.678C180.633,353.313 178.869,352.279 178.626,351.489C178.383,350.698 178.687,350.759 178.808,349.908C178.93,349.057 179.051,348.388 178.564,347.719C178.078,347.05 177.592,346.198 176.862,344.982C176.132,343.766 174.247,341.941 173.761,341.516C173.274,341.09 172.788,340.786 172.849,340.36C172.909,339.935 172.058,339.205 171.268,338.84C170.477,338.476 169.808,337.502 168.957,337.685C168.105,337.867 167.193,337.928 166.524,338.293C165.855,338.657 166.342,338.84 165.43,338.719C164.518,338.597 164.882,337.867 163.727,338.414C162.571,338.962 158.437,341.15 156.977,343.157C155.518,345.164 152.78,347.11 153.937,351.793C155.092,356.476 155.396,358.847 157.889,361.827C160.382,364.807 160.443,365.11 160.625,365.11C160.808,365.11 160.463,364.158 161,364.482C161,364.482 162.05,365.374 161.969,366.307C161.888,367.239 161.925,367.563 161.52,367.888C161.114,368.212 160.525,368.941 160.201,369.469C159.877,369.996 158.63,371.536 157.94,372.063C157.251,372.591 155.877,373.645 155.026,374.334C154.175,375.022 149.433,377.496 147.122,378.672C144.812,379.848 143.353,381.226 142.745,383.293C142.137,385.36 142.382,388.888 142.219,389.982C142.057,391.077 141.409,395.901 141.328,397.482C141.246,399.063 140.557,403.522 140.354,405.429C140.152,407.334 139.098,412.889 139.058,414.794C139.017,416.699 139.26,420.51 139.665,421.604C139.665,421.604 139.058,422.902 139.179,423.632C139.301,424.361 139.301,425.173 139.706,425.699C140.111,426.227 139.868,429.591 139.949,430.686C140.03,431.78 139.868,432.51 139.828,432.915C139.787,433.321 139.423,433.646 139.544,434.902C139.666,436.159 139.949,437.537 139.908,437.902C139.868,438.267 138.977,439.321 138.287,440.74C137.598,442.159 137.517,443.01 138.004,443.537C138.49,444.064 139.058,444.308 139.179,444.794C139.301,445.28 139.422,445.402 139.868,445.564C140.314,445.727 140.518,446.051 141.247,446.092C141.977,446.132 142.26,446.132 142.544,446.294C142.828,446.456 143.112,446.497 143.558,446.537C144.003,446.578 144.53,445.929 144.692,446.294C144.854,446.659 144.774,447.064 145.261,447.267C145.747,447.47 145.625,447.104 146.436,447.023C147.247,446.942 148.099,446.821 148.585,446.537C149.071,446.254 149.598,445.239 149.598,444.591C149.598,443.942 148.504,439.646 148.706,439.037C148.909,438.429 150.044,437.173 150.409,436.727C150.773,436.28 152.071,434.456 152.111,433.686C152.152,432.915 152.03,428.902 152.396,428.091C152.76,427.28 153.287,426.996 153.368,426.348C153.449,425.699 152.599,423.267 152.963,422.983C153.328,422.699 153.976,422.82 154.017,423.47C154.058,424.118 154.017,424.604 153.652,425.902C153.287,427.199 153.49,427.037 153.49,427.604C153.49,428.172 153.165,428.132 153.165,429.104C153.165,430.078 153.287,434.983 153.287,436.848C153.287,438.713 153.49,442.727 153.328,444.591C153.165,446.456 153.287,448.402 153.368,449.416C153.449,450.429 153.611,450.47 153.611,451.604C153.611,452.74 153.53,455.051 153.854,455.497C154.18,455.942 154.868,456.267 155.233,456.227C155.598,456.187 158.031,456.267 158.314,456.47C158.599,456.673 158.801,457.97 158.963,458.416C159.125,458.862 160.261,465.632 160.463,466.564C160.463,466.564 161.416,474.268 163.18,477.187C164.943,480.105 164.943,479.619 164.943,480.105C164.943,480.592 164.456,482.659 164.821,484.18C165.187,485.7 166.037,487.646 165.612,489.409C165.187,491.173 164.456,493.545 164.578,495.673C164.7,497.802 165.247,500.416 166.768,502.728C166.768,502.728 167.375,504.43 166.95,506.315C166.524,508.2 166.828,509.052 167.375,510.207C167.923,511.362 168.227,515.497 168.105,518.355C167.983,521.214 167.497,529.423 167.983,530.274C168.47,531.126 169.504,531.978 169.99,532.646C170.477,533.315 170.355,537.024 170.355,537.024C170.355,537.024 170.842,539.518 170.72,540.005C170.599,540.491 167.132,541.343 167.132,541.829C167.132,542.315 167.071,543.167 167.071,543.167C167.071,543.167 165.187,543.037 164.882,544.011C164.578,544.983 163.909,546.154 164.943,547.348L183.369,547.348C183.369,547.348 183.49,544.437 183.855,544.132C184.221,543.828 184.281,543.254 184.281,542.95C184.281,542.646 184.099,542.39 184.099,541.538C184.099,540.687 183.369,540.954 184.221,539.737C185.071,538.521 185.193,537.773 185.193,537.773C185.193,537.773 186.045,532.595 185.802,530.831C185.558,529.067 184.402,524.138 184.281,522.86C184.159,521.583 182.883,512.216 182.578,509.419C182.274,506.621 180.571,496.343 180.814,493.972C181.058,491.6 180.389,491.478 180.693,489.836C180.997,488.193 180.814,488.071 181.058,485.943C181.302,483.815 179.902,475.97 179.842,473.842C179.781,471.713 179.233,468.004 178.99,467.335C178.747,466.666 179.355,464.659 179.295,463.808C179.233,462.956 179.112,457.604 179.173,456.814C179.233,456.023 178.808,454.078 178.93,453.348C179.051,452.618 179.051,452.314 179.416,452.254C179.781,452.192 181.24,452.314 181.24,452.314C181.24,452.314 181.545,454.625 182.274,456.023C183.004,457.423 184.099,460.646 184.221,462.956C184.342,465.268 184.585,465.511 185.193,467.639C185.802,469.768 185.983,469.463 186.288,471.592C186.592,473.72 186.592,472.868 187.2,475.24C187.809,477.612 189.268,482.902 189.693,484.727C190.119,486.551 189.693,485.639 190.423,487.281C191.152,488.923 190.849,488.011 191.518,489.774C192.187,491.538 191.821,490.626 192.369,492.754C192.916,494.883 194.071,500.538 194.559,502.423C195.045,504.309 195.288,505.281 195.531,506.923C195.774,508.565 195.652,507.714 195.835,509.295C196.018,510.876 195.835,509.416 196.321,511.728C196.809,514.038 198.39,518.721 198.39,521.031C198.39,523.342 199.362,523.038 198.997,525.471C198.633,527.903 198.328,528.024 198.754,529.241C199.18,530.457 198.815,530.7 199.423,531.369C200.031,532.038 200.943,534.167 201.734,536.174C202.524,538.181 202.342,538.181 203.193,539.214C204.045,540.248 203.68,539.943 204.592,540.187C205.504,540.431 206.052,539.762 206.112,540.674C206.173,541.586 206.052,541.768 206.112,542.255C206.173,542.741 206.052,542.802 206.416,543.045C206.781,543.288 206.842,542.862 206.964,543.836C207.085,544.809 206.842,545.409 207.146,546.139C207.45,546.868 207.45,547.348 207.754,547.348L225.207,547.348C225.207,547.348 225.146,546.747 225.207,546.321C225.268,545.896 225.45,545.295 225.024,544.869Z" style="fill:rgb(195,191,0);fill-rule:nonzero;"/>
        </g>
        <g id="p10_1" transform="matrix(1.51643,-0.0877474,0.0877474,1.51643,-2052.12,-869.072)">
            <path d="M1475.76,731.769C1480.9,731.938 1480.22,734.854 1479.74,736.932C1479.27,739.011 1478.36,738.906 1478.36,738.906C1478.36,738.906 1482.63,791.082 1483.43,794.099C1484.24,797.116 1484.95,828.479 1484.34,830.757C1483.73,833.034 1481.32,838.949 1481.32,838.949L1475.57,830.559C1475.57,830.559 1473.89,798.494 1474.49,796.118C1475.1,793.741 1473.75,738.562 1473.75,738.562C1473.75,738.562 1471.31,737.144 1471.32,735.062C1471.34,732.402 1473.29,731.688 1475.76,731.769Z" style="fill:white;"/>
        </g>
    </g>
</svg>
